<svg width="61" height="60" viewBox="0 0 61 60" fill="none" xmlns="http://www.w3.org/2000/svg">
<path d="M7.45215 1.28564H14.4037V35.1528H7.45215V1.28564Z" fill="#F48B6E"/>
<path d="M14.4038 4.38135H46.7963V32.0571H14.4038V4.38135Z" fill="#05A7CC"/>
<path d="M30.5999 9.84912L33.3196 15.3595L39.4004 16.2431L35.0003 20.5324L36.039 26.5889L30.5999 23.7293L25.161 26.5889L26.1997 20.5324L21.7993 16.2431L27.8804 15.3595L30.5999 9.84912Z" fill="#F9D335"/>
<path d="M46.7964 1.28564H53.748V35.1528H46.7964V1.28564Z" fill="#F48B6E"/>
<path d="M7.45312 1.28564H10.9688V35.1528H7.45312V1.28564Z" fill="#EF5226"/>
<path d="M46.7954 1.28564H50.311V35.1528H46.7954V1.28564Z" fill="#EF5226"/>
<path d="M14.4048 4.38159H17.9204V32.0566H14.4048V4.38159Z" fill="#0598BA"/>
<path d="M43.2798 4.38159H46.7954V32.0566H43.2798V4.38159Z" fill="#37B9D6"/>
<path d="M31.397 15.3595L25.3149 16.2431L29.7165 20.5324L29.0251 24.5566L25.1603 26.5884L26.2009 20.5324L21.7993 16.2431L27.8813 15.3595L30.6001 9.84961L32.3579 13.4121L31.397 15.3595Z" fill="#F9E27D"/>
<path d="M43.3032 52.6338L50.398 56.0376L53.0228 58.6624L58.9988 52.6863L56.3741 50.0615L52.865 43.0718L43.3032 52.6338Z" fill="#F48B6E"/>
<path d="M52.5373 53.898L55.1621 56.5225L53.0223 58.6624L50.3977 56.0376L43.3027 52.6342L45.4423 50.4946L52.5373 53.898Z" fill="#EF5226"/>
<path d="M52.8657 43.0713L56.3747 50.0608L58.9993 52.6856L56.8597 54.8252L54.2351 52.2004L50.7261 45.2109L52.8657 43.0713Z" fill="#F27551"/>
<path d="M8.23 43.019L4.82594 50.114L2.20117 52.7388L8.1775 58.7149L10.802 56.0901L17.7918 52.5811L8.23 43.019Z" fill="#F48B6E"/>
<path d="M6.96531 52.2534L4.34078 54.8779L2.20117 52.7383L4.8257 50.1138L8.22906 43.0186L10.3689 45.1584L6.96531 52.2534Z" fill="#EF5226"/>
<path d="M17.7925 52.5815L10.8029 56.0906L8.17842 58.7151L6.03857 56.5755L8.66334 53.9507L15.6529 50.4419L17.7925 52.5815Z" fill="#F27551"/>
<path d="M7.45238 36.0901H14.4039C14.9217 36.0901 15.3414 35.6703 15.3414 35.1526V32.9945H45.8589V35.1526C45.8589 35.6703 46.2787 36.0901 46.7964 36.0901H53.7478C54.2655 36.0901 54.6853 35.6703 54.6853 35.1526V1.2854C54.6853 0.767666 54.2655 0.3479 53.7478 0.3479H46.7964C46.2787 0.3479 45.8589 0.767666 45.8589 1.2854V3.44376H15.3412V1.2854C15.3412 0.767666 14.9214 0.3479 14.4037 0.3479H7.45215C6.93441 0.3479 6.51465 0.767666 6.51465 1.2854V35.1526C6.51488 35.6703 6.93465 36.0901 7.45238 36.0901ZM47.7339 2.2229H52.8103V6.61743H47.7339C47.7339 5.05485 47.7339 3.75313 47.7339 2.2229ZM47.7339 8.49243H52.8103V13.727H47.7339V8.49243ZM47.7339 15.602H52.8103V20.8363H47.7339V15.602ZM47.7339 22.7113H52.8103V27.9456H47.7339V22.7113ZM47.7339 29.8206H52.8103V34.2151H47.7339C47.7339 32.6849 47.7339 31.3831 47.7339 29.8206ZM15.3412 5.31876H45.8587V31.1195H15.3412V5.31876ZM8.38988 2.2229H13.4664V6.61743H8.38988V2.2229ZM8.38988 8.49243H13.4664V13.727H8.38988V8.49243ZM8.38988 15.602H13.4664V20.8363H8.38988V15.602ZM8.38988 22.7113H13.4664V27.9456H8.38988V22.7113ZM8.38988 29.8206H13.4664V34.2151H8.38988V29.8206Z" fill="#FDEEE9"/>
<path d="M39.5355 15.3156L33.9423 14.5026L31.4409 9.43423C31.0977 8.73884 30.1028 8.7386 29.7595 9.43423L27.258 14.5028L21.6648 15.3159C20.8975 15.4272 20.5895 16.3734 21.1452 16.9148L25.1927 20.86L24.2371 26.4309C24.1047 27.2027 24.9189 27.7769 25.5974 27.419L30.6002 24.7886L35.6031 27.4188C36.2877 27.7792 37.0949 27.1966 36.9634 26.4306L36.0079 20.8598L40.0553 16.9145C40.6106 16.3738 40.3035 15.4272 39.5355 15.3156ZM34.3462 19.8613C34.1254 20.0767 34.0244 20.387 34.0766 20.691L34.7945 24.8753L31.0368 22.8998C30.7638 22.7561 30.4375 22.7559 30.1642 22.8998L26.4065 24.8753L27.1241 20.691C27.1764 20.387 27.0754 20.0767 26.8546 19.8613L23.8143 16.8979L28.0155 16.2874C28.3209 16.2433 28.5848 16.0513 28.7214 15.7745L30.6002 11.9676L32.4791 15.7745C32.6158 16.0513 32.8797 16.2431 33.1851 16.2874L37.3863 16.8979L34.3462 19.8613Z" fill="#FDEEE9"/>
<path d="M35.522 9.70337H39.272C39.7897 9.70337 40.2095 9.2836 40.2095 8.76587C40.2095 8.24813 39.7897 7.82837 39.272 7.82837H35.522C35.0042 7.82837 34.5845 8.24813 34.5845 8.76587C34.5845 9.2836 35.0042 9.70337 35.522 9.70337Z" fill="#FDEEE9"/>
<path d="M43.2798 7.82837H42.7876C42.2699 7.82837 41.8501 8.24813 41.8501 8.76587C41.8501 9.2836 42.2699 9.70337 42.7876 9.70337H43.2798C43.7975 9.70337 44.2173 9.2836 44.2173 8.76587C44.2173 8.24813 43.7975 7.82837 43.2798 7.82837Z" fill="#FDEEE9"/>
<path d="M59.6617 52.0233L57.1445 49.5058L53.7029 42.6508C53.4158 42.0797 52.6532 41.9569 52.2022 42.4087L42.6402 51.9708C42.1841 52.4264 42.3144 53.1989 42.8976 53.479L49.8486 56.8139L52.36 59.325C52.7261 59.6911 53.3197 59.6913 53.6856 59.325L59.6617 53.3489C60.028 52.9828 60.028 52.3891 59.6617 52.0233ZM44.9019 52.3608L52.6101 44.6526L55.2329 49.8769L50.2049 54.9049L44.9019 52.3608ZM53.0228 57.3365L51.7239 56.0376L56.3743 51.3872L57.6733 52.6861L53.0228 57.3365Z" fill="#FDEEE9"/>
<path d="M43.573 42.016C43.2072 41.6496 42.613 41.6496 42.2474 42.016C41.8811 42.3821 41.8811 42.9757 42.2474 43.3416L44.7201 45.8142C45.0857 46.1806 45.6801 46.1806 46.0457 45.8142C46.412 45.4481 46.412 44.8545 46.0457 44.4886L43.573 42.016Z" fill="#FDEEE9"/>
<path d="M43.5875 48.9082C43.5875 48.3905 43.1677 47.9707 42.65 47.9707H39.1533C38.6356 47.9707 38.2158 48.3905 38.2158 48.9082C38.2158 49.4259 38.6356 49.8457 39.1533 49.8457H42.65C43.1677 49.8457 43.5875 49.4259 43.5875 48.9082Z" fill="#FDEEE9"/>
<path d="M48.2021 38.9224V42.419C48.2021 42.9367 48.6219 43.3565 49.1396 43.3565C49.6574 43.3565 50.0771 42.9367 50.0771 42.419V38.9224C50.0771 38.4046 49.6574 37.9849 49.1396 37.9849C48.6219 37.9849 48.2021 38.4046 48.2021 38.9224Z" fill="#FDEEE9"/>
<path d="M8.89269 42.3562C8.43848 41.9018 7.66504 42.029 7.38449 42.6136L4.04957 49.5647L1.53824 52.0755C1.17238 52.4411 1.17191 53.0351 1.53824 53.4012L7.51434 59.3775C7.88066 59.7436 8.4741 59.7436 8.84019 59.3775L11.3576 56.8601L18.2124 53.4185C18.7826 53.1319 18.9066 52.3697 18.4547 51.9178L8.89269 42.3562ZM8.17715 57.3888L3.52691 52.7383L4.82582 51.4397L9.47605 56.0899L8.17715 57.3888ZM10.9864 54.9485L5.95855 49.9204L8.50269 44.6177L16.2106 52.3256L10.9864 54.9485Z" fill="#FDEEE9"/>
<path d="M17.5216 41.9635L15.0492 44.436C14.6828 44.802 14.6828 45.3957 15.0492 45.7616C15.4153 46.1277 16.0089 46.1279 16.375 45.7616L18.8474 43.2892C19.2138 42.9231 19.2138 42.3294 18.8474 41.9635C18.4816 41.5974 17.8879 41.5974 17.5216 41.9635Z" fill="#FDEEE9"/>
<path d="M11.0176 38.8696V42.3663C11.0176 42.884 11.4373 43.3038 11.9551 43.3038C12.4728 43.3038 12.8926 42.884 12.8926 42.3663V38.8696C12.8926 38.3519 12.4728 37.9321 11.9551 37.9321C11.4373 37.9321 11.0176 38.3519 11.0176 38.8696Z" fill="#FDEEE9"/>
<path d="M21.941 47.918H18.4443C17.9266 47.918 17.5068 48.3377 17.5068 48.8555C17.5068 49.3732 17.9266 49.793 18.4443 49.793H21.941C22.4587 49.793 22.8785 49.3732 22.8785 48.8555C22.8785 48.3377 22.4587 47.918 21.941 47.918Z" fill="#FDEEE9"/>
</svg>
