<svg width="61" height="60" viewBox="0 0 61 60" fill="none" xmlns="http://www.w3.org/2000/svg">
<path d="M57.6883 16.9411H49.7471L58.306 8.8235C60.1589 7.05879 60.2471 4.14702 58.4824 2.38232C56.7177 0.529378 53.806 0.529378 52.0412 2.20585L36.4236 16.9411H3.51183C2.36477 16.9411 1.48242 17.8235 1.48242 18.9706V57.0882C1.48242 58.2353 2.36477 59.1176 3.51183 59.1176H57.6883C58.8354 59.1176 59.7177 58.2353 59.7177 57.0882V18.9706C59.7177 17.8235 58.8354 16.9411 57.6883 16.9411ZM33.5118 22.5882L37.0412 26.2941L28.4824 30.8823L33.5118 22.5882ZM38.453 25.2353L34.5707 21.1764L37.3942 18.4411L49.1295 7.3235L53.0118 11.3823L46.9236 17.2058L38.453 25.2353ZM53.1883 3.44114C54.2471 2.38232 56.1001 2.47055 57.1589 3.52938C58.2177 4.67644 58.2177 6.44114 57.0707 7.49997L54.2471 10.147L50.3648 6.0882L53.1883 3.44114ZM57.953 57.0882C57.953 57.2647 57.8648 57.3529 57.6883 57.3529H3.51183C3.33536 57.3529 3.24713 57.2647 3.24713 57.0882V18.9706C3.24713 18.7941 3.33536 18.7058 3.51183 18.7058H34.5707L32.7177 20.4706L32.5412 20.647L25.306 32.7353C25.1295 33.0882 25.1295 33.5294 25.3942 33.7941C25.6589 34.0588 26.1001 34.147 26.453 33.9706L38.8942 27.2647L39.0707 27.0882L47.8942 18.7058H57.6883C57.8648 18.7058 57.953 18.7941 57.953 18.9706V57.0882Z" fill="#05A7CC"/>
<path d="M21.6002 36.8823C22.1296 36.8823 22.4826 36.5294 22.4826 36V22.3235C22.4826 21.7941 22.1296 21.4412 21.6002 21.4412H6.95315C6.42374 21.4412 6.0708 21.7941 6.0708 22.3235V36C6.0708 36.5294 6.42374 36.8823 6.95315 36.8823H21.6002ZM7.83551 23.2059H20.6296V35.1176H7.83551V23.2059Z" fill="#05A7CC"/>
<path d="M53.8062 46.6765H7.30618C6.77677 46.6765 6.42383 47.0295 6.42383 47.5589V52.853C6.42383 53.3824 6.77677 53.7353 7.30618 53.7353H53.718C54.2474 53.7353 54.6003 53.3824 54.6003 52.853V47.5589C54.6885 47.0295 54.2474 46.6765 53.8062 46.6765ZM52.9238 51.9706H8.18853V48.4412H52.8356V51.9706H52.9238Z" fill="#05A7CC"/>
<path d="M7.83548 40.9412C7.30607 40.9412 6.95312 41.2941 6.95312 41.8235C6.95312 42.3529 7.30607 42.7059 7.83548 42.7059H11.6296C12.159 42.7059 12.5119 42.3529 12.5119 41.8235C12.5119 41.2941 12.159 40.9412 11.6296 40.9412H7.83548Z" fill="#05A7CC"/>
<path d="M16.2178 40.9412C15.6884 40.9412 15.3354 41.2941 15.3354 41.8235C15.3354 42.3529 15.6884 42.7059 16.2178 42.7059H20.0119C20.5413 42.7059 20.8943 42.3529 20.8943 41.8235C20.8943 41.2941 20.5413 40.9412 20.0119 40.9412H16.2178Z" fill="#05A7CC"/>
<path d="M24.5117 42.7059H28.3059C28.8353 42.7059 29.1882 42.3529 29.1882 41.8235C29.1882 41.2941 28.8353 40.9412 28.3059 40.9412H24.5117C23.9823 40.9412 23.6294 41.2941 23.6294 41.8235C23.6294 42.3529 24.0706 42.7059 24.5117 42.7059Z" fill="#05A7CC"/>
<path d="M32.8941 40.9412C32.3647 40.9412 32.0117 41.2941 32.0117 41.8235C32.0117 42.3529 32.3647 42.7059 32.8941 42.7059H36.6882C37.2176 42.7059 37.5705 42.3529 37.5705 41.8235C37.5705 41.2941 37.2176 40.9412 36.6882 40.9412H32.8941Z" fill="#05A7CC"/>
<path d="M41.2764 40.9412C40.747 40.9412 40.394 41.2941 40.394 41.8235C40.394 42.3529 40.747 42.7059 41.2764 42.7059H45.0705C45.5999 42.7059 45.9529 42.3529 45.9529 41.8235C45.9529 41.2941 45.5999 40.9412 45.0705 40.9412H41.2764Z" fill="#05A7CC"/>
<path d="M53.3649 40.9412H49.5708C49.0414 40.9412 48.6885 41.2941 48.6885 41.8235C48.6885 42.3529 49.0414 42.7059 49.5708 42.7059H53.3649C53.8944 42.7059 54.2473 42.3529 54.2473 41.8235C54.2473 41.3823 53.8061 40.9412 53.3649 40.9412Z" fill="#05A7CC"/>
<path d="M26.4532 36.8824H53.3649C53.8943 36.8824 54.2473 36.5294 54.2473 36C54.2473 35.4706 53.8943 35.1177 53.3649 35.1177H26.4532C25.9237 35.1177 25.5708 35.4706 25.5708 36C25.5708 36.5294 25.9237 36.8824 26.4532 36.8824Z" fill="#05A7CC"/>
</svg>
