<svg width="60" height="60" viewBox="0 0 60 60" fill="none" xmlns="http://www.w3.org/2000/svg">
<path d="M20.4975 25.3003L20.369 25.2947C19.8574 25.2677 19.3618 25.1068 18.9319 24.8281C18.502 24.5494 18.1528 24.1627 17.9194 23.7066L17.9081 23.685C17.7649 23.4041 17.6671 23.1022 17.6184 22.7906C17.5904 22.7109 17.5737 22.6276 17.5687 22.5431C17.5729 22.5151 17.5785 22.4872 17.5856 22.4597C17.5393 21.8643 17.682 21.2695 17.9934 20.76L18.0637 20.6503C18.2067 20.4228 18.2537 20.1479 18.1945 19.8857C18.1353 19.6236 17.9747 19.3956 17.7478 19.2516L16.9406 18.7406C16.7132 18.5972 16.4382 18.5497 16.1759 18.6086C15.9135 18.6674 15.6852 18.8279 15.5409 19.0547L15.4762 19.1588C15.2041 19.5861 14.8246 19.9346 14.3757 20.1694C13.9267 20.4041 13.424 20.517 12.9178 20.4966H12.8194C12.3085 20.4813 11.8109 20.3304 11.3777 20.0594C10.9444 19.7884 10.591 19.407 10.3537 18.9544L10.2956 18.8447C10.1709 18.6064 9.9566 18.4274 9.69993 18.3471C9.44326 18.2668 9.16518 18.2916 8.92685 18.4163L8.0831 18.8597C7.84476 18.9846 7.66575 19.1991 7.58542 19.4559C7.50508 19.7127 7.52999 19.9909 7.65466 20.2294L7.71091 20.3353C7.94967 20.7875 8.06363 21.2951 8.04106 21.8059C8.01848 22.3167 7.86019 22.8123 7.58248 23.2416L6.73873 22.8169L7.5206 23.3344C7.24891 23.7601 6.87023 24.107 6.4224 24.3405C5.97458 24.574 5.47331 24.6858 4.96873 24.6647L4.84873 24.6563C4.57959 24.6491 4.31783 24.7447 4.11654 24.9235C4.01838 25.0137 3.93903 25.1224 3.88304 25.2434C3.82705 25.3644 3.79553 25.4952 3.79029 25.6285L3.74998 26.5856C3.74419 26.7189 3.76479 26.8519 3.81057 26.9772C3.85635 27.1024 3.92642 27.2174 4.01675 27.3154C4.10708 27.4135 4.2159 27.4928 4.33696 27.5487C4.45801 27.6046 4.58892 27.6361 4.72216 27.6413L4.85154 27.6469C5.36412 27.6744 5.86048 27.8361 6.2909 28.1158C6.72133 28.3955 7.0707 28.7834 7.30404 29.2406L7.32091 29.2744C7.55913 29.7252 7.67577 30.2303 7.65933 30.7399C7.64289 31.2496 7.49394 31.7461 7.22716 32.1806L7.15779 32.2894C7.08659 32.402 7.03829 32.5276 7.01564 32.6589C6.99299 32.7902 6.99643 32.9247 7.02577 33.0547C7.05511 33.1847 7.10977 33.3076 7.18663 33.4165C7.26349 33.5253 7.36105 33.6179 7.47373 33.6891L8.27997 34.1991C8.39243 34.2706 8.51791 34.3191 8.64919 34.342C8.78048 34.3648 8.91498 34.3615 9.04497 34.3322C9.17523 34.3037 9.29848 34.2495 9.40747 34.1727C9.51647 34.0959 9.60901 33.9981 9.67966 33.885L9.74529 33.7819C10.0041 33.3717 10.3622 33.0335 10.7865 32.7985C11.2108 32.5635 11.6875 32.4393 12.1725 32.4375H12.3028H12.4022C12.4659 32.4375 12.524 32.4619 12.5897 32.4685C12.5974 32.4664 12.6052 32.4649 12.6131 32.4638C12.692 32.4689 12.7698 32.4844 12.8447 32.5097C13.2715 32.5856 13.6756 32.7574 14.0264 33.0122C14.3772 33.267 14.6655 33.5981 14.8697 33.9806L14.9278 34.0903C15.0525 34.3286 15.2668 34.5076 15.5235 34.5879C15.7801 34.6683 16.0582 34.6434 16.2965 34.5188L17.1403 34.0744C17.2584 34.0126 17.3632 33.9282 17.4486 33.8259C17.5341 33.7237 17.5986 33.6055 17.6383 33.4783C17.6781 33.3511 17.6925 33.2173 17.6805 33.0846C17.6686 32.9518 17.6306 32.8228 17.5687 32.7047L17.5134 32.5997C17.2747 32.1476 17.1607 31.6401 17.1831 31.1293C17.2055 30.6185 17.3635 30.1229 17.6409 29.6935L18.4847 30.1191L17.7019 29.6016C17.9718 29.1756 18.3498 28.8287 18.7974 28.5961C19.245 28.3636 19.7462 28.2538 20.25 28.2778H20.3681H20.4103C20.6724 28.2789 20.9248 28.1788 21.115 27.9984C21.3052 27.818 21.4184 27.5712 21.4312 27.3094L21.4697 26.356C21.4752 26.2228 21.4544 26.0899 21.4086 25.9647C21.3627 25.8396 21.2926 25.7247 21.2023 25.6267C21.112 25.5287 21.0033 25.4494 20.8824 25.3934C20.7614 25.3374 20.6306 25.3058 20.4975 25.3003ZM14.7609 30.5738C13.9495 30.9993 13.0301 31.1746 12.119 31.0775C11.2079 30.9805 10.3461 30.6154 9.64253 30.0285C8.93895 29.4416 8.42521 28.6593 8.1663 27.7804C7.90739 26.9015 7.91493 25.9656 8.18797 25.091C8.46101 24.2164 8.98729 23.4424 9.70024 22.8669C10.4132 22.2915 11.2808 21.9403 12.1933 21.858C13.1058 21.7756 14.0223 21.9657 14.8267 22.4042C15.6312 22.8428 16.2876 23.51 16.7128 24.3216C16.9977 24.8597 17.1732 25.449 17.2292 26.0553C17.2853 26.6616 17.2207 27.273 17.0392 27.8543C16.8578 28.4355 16.563 28.9751 16.172 29.4418C15.781 29.9086 15.3014 30.2933 14.7609 30.5738Z" fill="#05A7CC"/>
<path d="M15.0525 25.1916C14.7994 24.7086 14.4087 24.3115 13.9299 24.0505C13.4511 23.7894 12.9057 23.6763 12.3625 23.7253C11.8194 23.7742 11.303 23.9832 10.8787 24.3257C10.4543 24.6681 10.141 25.1288 9.97842 25.6493C9.81584 26.1698 9.81126 26.7268 9.96527 27.25C10.1193 27.7731 10.4249 28.2388 10.8436 28.5882C11.2623 28.9376 11.7752 29.155 12.3175 29.2129C12.8597 29.2708 13.4069 29.1666 13.89 28.9135C14.5373 28.5737 15.0233 27.9909 15.2413 27.2931C15.4592 26.5953 15.3913 25.8394 15.0525 25.1916Z" fill="#EF5226"/>
<path d="M52.1355 41.6606C53.0126 41.6606 53.7236 40.9496 53.7236 40.0725C53.7236 39.1954 53.0126 38.4844 52.1355 38.4844C51.2584 38.4844 50.5474 39.1954 50.5474 40.0725C50.5474 40.9496 51.2584 41.6606 52.1355 41.6606Z" fill="#EF5226"/>
<path d="M52.1355 48.8381C53.0126 48.8381 53.7236 48.1271 53.7236 47.25C53.7236 46.3729 53.0126 45.6619 52.1355 45.6619C51.2584 45.6619 50.5474 46.3729 50.5474 47.25C50.5474 48.1271 51.2584 48.8381 52.1355 48.8381Z" fill="#EF5226"/>
<path d="M46.6228 21.6056L16.9978 7.31245C16.8967 7.25976 16.786 7.22791 16.6723 7.21879C16.5586 7.20967 16.4442 7.22347 16.336 7.25935C16.2277 7.29524 16.1278 7.3525 16.042 7.42773C15.9563 7.50295 15.8866 7.59462 15.8369 7.69731C15.7873 7.79999 15.7587 7.91159 15.753 8.0255C15.7473 8.13941 15.7645 8.2533 15.8036 8.36044C15.8427 8.46758 15.9029 8.56578 15.9807 8.64922C16.0584 8.73266 16.1522 8.79965 16.2563 8.8462L42.6938 21.6046L46.6228 21.6056Z" fill="#EF5226"/>
<path d="M55.3333 23.4807H20.9579C21.4933 23.5673 21.9922 23.8068 22.3946 24.1704C22.7969 24.534 23.0856 25.0062 23.2258 25.5301H45.5889C45.893 25.5298 46.1941 25.5895 46.4752 25.7056C46.7562 25.8218 47.0116 25.9921 47.2268 26.207C47.442 26.4218 47.6128 26.677 47.7294 26.9578C47.846 27.2387 47.9061 27.5397 47.9064 27.8438V48.4004C47.9056 49.0136 47.6617 49.6014 47.2282 50.035C46.7946 50.4686 46.2067 50.7125 45.5936 50.7132H13.9867C13.3734 50.7125 12.7855 50.4686 12.3518 50.035C11.9181 49.6015 11.6739 49.0137 11.6729 48.4004V34.4588C11.5341 34.5389 11.4164 34.6511 11.3298 34.786L11.2651 34.8901C10.8614 35.5303 10.2213 35.9852 9.48389 36.1557V51.8551C9.48438 52.098 9.58117 52.3308 9.75304 52.5025C9.9249 52.6742 10.1578 52.7708 10.4008 52.771H55.3333C55.5763 52.771 55.8093 52.6746 55.9813 52.5028C56.1532 52.3311 56.2499 52.0981 56.2501 51.8551V24.3957C56.2496 24.1529 56.1528 23.9201 55.9809 23.7486C55.809 23.5771 55.5761 23.4807 55.3333 23.4807ZM50.222 26.7882H54.0489C54.2975 26.7882 54.536 26.887 54.7118 27.0628C54.8876 27.2386 54.9864 27.4771 54.9864 27.7257C54.9864 27.9744 54.8876 28.2128 54.7118 28.3886C54.536 28.5644 54.2975 28.6632 54.0489 28.6632H50.222C49.9734 28.6632 49.7349 28.5644 49.5591 28.3886C49.3833 28.2128 49.2845 27.9744 49.2845 27.7257C49.2845 27.4771 49.3833 27.2386 49.5591 27.0628C49.7349 26.887 49.9734 26.7882 50.222 26.7882ZM50.222 30.1435H54.0489C54.2975 30.1435 54.536 30.2423 54.7118 30.4181C54.8876 30.5939 54.9864 30.8324 54.9864 31.081C54.9864 31.3297 54.8876 31.5681 54.7118 31.7439C54.536 31.9198 54.2975 32.0185 54.0489 32.0185H50.222C49.9734 32.0185 49.7349 31.9198 49.5591 31.7439C49.3833 31.5681 49.2845 31.3297 49.2845 31.081C49.2845 30.8324 49.3833 30.5939 49.5591 30.4181C49.7349 30.2423 49.9734 30.1435 50.222 30.1435ZM50.222 33.4979H54.0489C54.2975 33.4979 54.536 33.5967 54.7118 33.7725C54.8876 33.9483 54.9864 34.1868 54.9864 34.4354C54.9864 34.684 54.8876 34.9225 54.7118 35.0983C54.536 35.2741 54.2975 35.3729 54.0489 35.3729H50.222C49.9734 35.3729 49.7349 35.2741 49.5591 35.0983C49.3833 34.9225 49.2845 34.684 49.2845 34.4354C49.2845 34.1868 49.3833 33.9483 49.5591 33.7725C49.7349 33.5967 49.9734 33.4979 50.222 33.4979ZM52.1355 50.7188C51.4505 50.7179 50.7812 50.514 50.2122 50.1328C49.6432 49.7516 49.1999 49.2102 48.9384 48.5772C48.6769 47.9441 48.609 47.2478 48.7432 46.5761C48.8774 45.9044 49.2077 45.2877 49.6923 44.8037C50.177 44.3197 50.7942 43.9902 51.4661 43.8569C52.1379 43.7237 52.8342 43.7925 53.4669 44.0548C54.0996 44.3172 54.6403 44.7612 55.0207 45.3307C55.4012 45.9003 55.6042 46.5698 55.6042 47.2548C55.603 48.1739 55.237 49.055 54.5866 49.7045C53.9362 50.354 53.0546 50.7188 52.1355 50.7188ZM52.1355 43.5404C51.4507 43.5393 50.7817 43.3352 50.213 42.954C49.6442 42.5728 49.2012 42.0316 48.94 41.3987C48.6787 40.7658 48.6109 40.0696 48.7452 39.3982C48.8794 38.7268 49.2097 38.1103 49.6943 37.6265C50.1788 37.1427 50.7959 36.8135 51.4675 36.6803C52.1391 36.5471 52.8352 36.616 53.4677 36.8783C54.1001 37.1406 54.6407 37.5845 55.0209 38.1539C55.4012 38.7232 55.6042 39.3926 55.6042 40.0773C55.6015 40.9955 55.2348 41.8751 54.5846 42.5234C53.9344 43.1717 53.0536 43.5357 52.1355 43.5357V43.5404Z" fill="#EF5226"/>
<path d="M18.0105 35.7469L17.1667 36.1913C16.5675 36.5059 15.8768 36.5995 15.2155 36.4559C14.5542 36.3122 13.9645 35.9405 13.5498 35.4057V48.4004C13.5492 48.4581 13.5601 48.5154 13.582 48.5689C13.6038 48.6223 13.6361 48.6709 13.677 48.7117C13.7179 48.7525 13.7665 48.7847 13.82 48.8064C13.8735 48.8281 13.9308 48.8389 13.9886 48.8382H45.5889C45.6466 48.8388 45.7038 48.8279 45.7572 48.8061C45.8106 48.7844 45.8591 48.7521 45.8999 48.7114C45.9407 48.6706 45.9729 48.6221 45.9947 48.5687C46.0164 48.5153 46.0273 48.458 46.0267 48.4004V27.8438C46.0267 27.7277 45.9806 27.6163 45.8985 27.5342C45.8164 27.4521 45.705 27.406 45.5889 27.406H23.3017C23.2865 27.784 23.1968 28.1552 23.0375 28.4984C22.8783 28.8416 22.6528 29.1498 22.374 29.4055C22.0952 29.6611 21.7685 29.8591 21.4129 29.988C21.0572 30.1169 20.6796 30.1742 20.3017 30.1566H20.1826C20.0069 30.1505 19.8326 30.1897 19.6764 30.2705C19.5203 30.3513 19.3876 30.4709 19.2911 30.6179L19.2058 30.7491C19.1138 30.8975 19.0625 31.0673 19.0569 31.2417C19.0513 31.4162 19.0917 31.589 19.1739 31.7429L19.2301 31.8488C19.584 32.5277 19.6543 33.3192 19.4257 34.0499C19.1971 34.7805 18.6882 35.3908 18.0105 35.7469ZM42.6142 36.3844C42.6142 36.1358 42.713 35.8973 42.8888 35.7215C43.0646 35.5457 43.3031 35.4469 43.5517 35.4469C43.8004 35.4469 44.0388 35.5457 44.2146 35.7215C44.3904 35.8973 44.4892 36.1358 44.4892 36.3844V37.0735C44.4892 37.3221 44.3904 37.5606 44.2146 37.7364C44.0388 37.9122 43.8004 38.011 43.5517 38.011C43.3031 38.011 43.0646 37.9122 42.8888 37.7364C42.713 37.5606 42.6142 37.3221 42.6142 37.0735V36.3844ZM36.4098 45.7182H42.3939C42.423 45.7181 42.4517 45.7122 42.4785 45.701C42.5053 45.6898 42.5296 45.6734 42.5501 45.6527C42.5705 45.6321 42.5867 45.6076 42.5977 45.5807C42.6087 45.5539 42.6143 45.5251 42.6142 45.496V39.7951C42.6142 39.5464 42.713 39.308 42.8888 39.1322C43.0646 38.9563 43.3031 38.8576 43.5517 38.8576C43.8004 38.8576 44.0388 38.9563 44.2146 39.1322C44.3904 39.308 44.4892 39.5464 44.4892 39.7951V45.496C44.489 46.0518 44.2682 46.5848 43.8753 46.978C43.4825 47.3712 42.9497 47.5924 42.3939 47.5932H36.4098C36.1612 47.5932 35.9227 47.4944 35.7469 47.3186C35.5711 47.1428 35.4723 46.9043 35.4723 46.6557C35.4723 46.4071 35.5711 46.1686 35.7469 45.9928C35.9227 45.817 36.1612 45.7182 36.4098 45.7182Z" fill="#05A7CC"/>
</svg>
