<svg width="70" height="60" viewBox="0 0 70 60" fill="none" xmlns="http://www.w3.org/2000/svg">
<path d="M2.4 12H42V21.6H44.4V12H55.2V21.6H57.6V4.8C57.5986 3.5274 57.0924 2.30733 56.1925 1.40747C55.2927 0.507602 54.0726 0.00142927 52.8 0H4.8C3.5274 0.00142927 2.30733 0.507602 1.40747 1.40747C0.507601 2.30733 0.00142926 3.5274 0 4.8V43.2C0.00142926 44.4726 0.507601 45.6927 1.40747 46.5925C2.30733 47.4924 3.5274 47.9986 4.8 48H16.0584L13.6584 52.8H8.4C7.44522 52.8 6.52955 53.1793 5.85442 53.8544C5.17928 54.5295 4.8 55.4452 4.8 56.4C4.8 57.3548 5.17928 58.2705 5.85442 58.9456C6.52955 59.6207 7.44522 60 8.4 60H26.4V57.6H8.4C8.08174 57.6 7.77652 57.4736 7.55147 57.2485C7.32643 57.0235 7.2 56.7183 7.2 56.4C7.2 56.0817 7.32643 55.7765 7.55147 55.5515C7.77652 55.3264 8.08174 55.2 8.4 55.2H26.4V52.8H16.3416L18.7416 48H26.4V45.6H4.8C4.16371 45.5992 3.5537 45.3461 3.10378 44.8962C2.65385 44.4463 2.40075 43.8363 2.4 43.2V38.4H26.4V36H2.4V12ZM4.8 2.4H52.8C53.4363 2.40075 54.0463 2.65385 54.4962 3.10378C54.9461 3.5537 55.1992 4.16371 55.2 4.8V9.6H2.4V4.8C2.40075 4.16371 2.65385 3.5537 3.10378 3.10378C3.5537 2.65385 4.16371 2.40075 4.8 2.4Z" fill="#05A7CC"/>
<path d="M68.3998 24H29.9998C29.6815 24 29.3763 24.1264 29.1513 24.3515C28.9262 24.5765 28.7998 24.8817 28.7998 25.2V55.2C28.8012 56.4726 29.3074 57.6927 30.2073 58.5925C31.1071 59.4924 32.3272 59.9986 33.5998 60H64.7998C66.0724 59.9986 67.2925 59.4924 68.1923 58.5925C69.0922 57.6927 69.5984 56.4726 69.5998 55.2V25.2C69.5998 24.8817 69.4734 24.5765 69.2483 24.3515C69.0233 24.1264 68.7181 24 68.3998 24ZM39.2484 27.9515L37.6969 26.4H46.3027L41.5027 31.2H39.5998V28.8C39.5998 28.6424 39.5688 28.4864 39.5085 28.3408C39.4482 28.1952 39.3598 28.0629 39.2484 27.9515ZM49.6969 26.4H54.7027L49.9027 31.2H44.8969L49.6969 26.4ZM58.0969 26.4H63.1027L58.3027 31.2H53.2969L58.0969 26.4ZM66.4969 26.4H67.1998V31.2H61.6969L66.4969 26.4ZM31.1998 26.4H34.3029L37.1998 29.297V31.2H31.1998V26.4ZM64.7998 57.6H33.5998C32.9635 57.5992 32.3535 57.3461 31.9036 56.8962C31.4537 56.4463 31.2006 55.8363 31.1998 55.2V33.6H67.1998V55.2C67.199 55.8363 66.9459 56.4463 66.496 56.8962C66.0461 57.3461 65.4361 57.5992 64.7998 57.6Z" fill="#05A7CC"/>
<path d="M34.8003 40.7999H42.0003V44.3999H34.8003V46.7999H54.0003V50.3999H34.8003V52.7999H63.6003V50.3999H56.4003V46.7999H63.6003V44.3999H56.4003V40.7999H63.6003V38.3999H34.8003V40.7999ZM54.0003 44.3999H44.4003V40.7999H54.0003V44.3999Z" fill="#EF5226"/>
<path d="M4.80029 4.80005H7.20029V7.20005H4.80029V4.80005Z" fill="#EF5226"/>
<path d="M9.6001 4.80005H12.0001V7.20005H9.6001V4.80005Z" fill="#EF5226"/>
<path d="M14.3999 4.80005H16.7999V7.20005H14.3999V4.80005Z" fill="#EF5226"/>
<path d="M4.80029 28.8H7.20029V31.2H4.80029V28.8Z" fill="#EF5226"/>
<path d="M4.80029 24H7.20029V26.4H4.80029V24Z" fill="#EF5226"/>
<path d="M4.80029 19.2H7.20029V21.6H4.80029V19.2Z" fill="#EF5226"/>
<path d="M4.80029 14.3999H7.20029V16.7999H4.80029V14.3999Z" fill="#EF5226"/>
<path d="M15.6001 33.5999V26.3999H13.2001V28.7999H9.6001V31.1999H13.2001V33.5999H15.6001Z" fill="#EF5226"/>
<path d="M18 28.8H26.4V31.2H18V28.8Z" fill="#EF5226"/>
<path d="M46.7998 14.3999H52.7998V16.7999H46.7998V14.3999Z" fill="#EF5226"/>
<path d="M46.7998 19.2H52.7998V21.6H46.7998V19.2Z" fill="#EF5226"/>
<path d="M25.7365 19.3268L18.5365 15.7268C18.3536 15.6353 18.1503 15.5921 17.9459 15.6013C17.7416 15.6105 17.543 15.6718 17.369 15.7793C17.195 15.8868 17.0513 16.037 16.9517 16.2157C16.8521 16.3944 16.7998 16.5955 16.7998 16.8001V24.0001C16.7998 24.2046 16.8521 24.4058 16.9517 24.5844C17.0513 24.7631 17.195 24.9133 17.369 25.0208C17.543 25.1283 17.7416 25.1896 17.9459 25.1988C18.1503 25.208 18.3536 25.1648 18.5365 25.0733L25.7365 21.4733C25.9358 21.3736 26.1034 21.2204 26.2205 21.0309C26.3377 20.8413 26.3997 20.6229 26.3997 20.4001C26.3997 20.1772 26.3377 19.9588 26.2205 19.7692C26.1034 19.5797 25.9358 19.4265 25.7365 19.3268ZM19.1998 22.0585V18.7417L22.5165 20.4001L19.1998 22.0585Z" fill="#EF5226"/>
</svg>
