<svg width="60" height="70" viewBox="0 0 60 70" fill="none" xmlns="http://www.w3.org/2000/svg">
<path d="M58.8461 31.5383V64.9999C58.8461 65.9179 58.4814 66.7984 57.8323 67.4475C57.1831 68.0967 56.3026 68.4614 55.3846 68.4614H4.61535C3.69729 68.4614 2.81683 68.0967 2.16767 67.4475C1.51851 66.7984 1.15381 65.9179 1.15381 64.9999V31.5383H58.8461Z" fill="#05A7CC"/>
<path d="M1.15381 31.5383H58.8461V36.1537H1.15381V31.5383Z" fill="#E6F6FA"/>
<path d="M12.6924 26.9231H58.8462V33.8462H12.6924V26.9231Z" fill="#05A7CC"/>
<path d="M29.9998 33.8462L36.9229 26.9231H27.6921L20.769 33.8462H29.9998Z" fill="#E6F6FA"/>
<path d="M48.4617 33.8462L55.3848 26.9231H46.154L39.231 33.8462H48.4617Z" fill="#E6F6FA"/>
<path d="M17.3077 33.8462H1.15381V20H12.6923L17.3077 24.6154V33.8462Z" fill="#05A7CC"/>
<path d="M16.4685 23.7758L22.3257 21.5475L30.9536 18.2648L39.5815 14.9835V14.9821L48.2094 11.7008L57.9147 8.00852L55.4541 1.53833L52.2176 2.76862V2.77006L43.5911 6.05131L34.9632 9.33256V9.334L26.3354 12.6153L6.92334 19.9999L16.4685 23.7758Z" fill="#05A7CC"/>
<path d="M30.9536 18.2656L34.9628 9.33325L26.3352 12.6154L22.3262 21.5476L30.9536 18.2656Z" fill="#E6F6FA"/>
<path d="M52.2178 2.76904L48.2087 11.7013L39.5811 14.9834L43.5902 6.05116L52.2178 2.76904Z" fill="#E6F6FA"/>
<path d="M4.61523 28.0769H6.92293V30.3846H4.61523V28.0769Z" fill="#EF5226"/>
<path d="M57.6923 64.9999C57.6916 65.6117 57.4482 66.1983 57.0156 66.6309C56.583 67.0635 55.9964 67.3069 55.3846 67.3076H4.61538C4.00357 67.3069 3.41702 67.0635 2.9844 66.6309C2.55178 66.1983 2.30842 65.6117 2.30769 64.9999V37.3076H0V64.9999C0.00137429 66.2236 0.488078 67.3967 1.35333 68.262C2.21859 69.1272 3.39173 69.6139 4.61538 69.6153H55.3846C56.6083 69.6139 57.7814 69.1272 58.6467 68.262C59.5119 67.3967 59.9986 66.2236 60 64.9999V37.3076H57.6923V64.9999Z" fill="#EF5226"/>
<path d="M8.07666 60.3845H51.9228V62.6922H8.07666V60.3845Z" fill="#EF5226"/>
<path d="M8.07666 55.7691V58.0768H51.9228V55.7691H36.9228V48.846H51.9228V46.5383H39.2305V41.9229H51.9228V39.6152H12.692V41.9229H20.769V46.5383H8.07666V48.846H34.6151V51.1537H8.07666V53.4614H34.6151V55.7691H8.07666ZM23.0767 41.9229H36.9228V46.5383H23.0767V41.9229Z" fill="#EF5226"/>
<path d="M58.8462 25.7691H18.4615V24.6153C18.4614 24.4989 18.4437 24.3832 18.4089 24.2722L39.9914 16.0624C40.009 16.0556 40.0265 16.048 40.0437 16.0411L58.3248 9.08698C58.6108 8.97818 58.8418 8.76023 58.9671 8.48106C59.0925 8.2019 59.1018 7.88439 58.993 7.59837L56.5324 1.12818C56.4236 0.842187 56.2057 0.611109 55.9266 0.485769C55.6474 0.36043 55.33 0.351095 55.0439 0.459817L51.8074 1.69011C51.7895 1.69688 51.7719 1.70453 51.7546 1.7116L34.5528 8.25405C34.5356 8.26068 34.5186 8.26761 34.5017 8.27496L6.7112 18.8461H1.15385C0.847827 18.8461 0.554342 18.9676 0.337954 19.184C0.121566 19.4004 0 19.6939 0 19.9999V33.8461C0 34.1521 0.121566 34.4456 0.337954 34.662C0.554342 34.8783 0.847827 34.9999 1.15385 34.9999H58.8462C59.1522 34.9999 59.4457 34.8783 59.662 34.662C59.8784 34.4456 60 34.1521 60 33.8461V26.923C60 26.617 59.8784 26.3235 59.662 26.1071C59.4457 25.8907 59.1522 25.7691 58.8462 25.7691ZM37.4009 28.0768H43.3683L38.7529 32.6922H32.7855L37.4009 28.0768ZM29.5222 32.6922H23.5548L28.1701 28.0768H34.1376L29.5222 32.6922ZM46.6317 28.0768H52.5991L47.9837 32.6922H42.0163L46.6317 28.0768ZM24.9068 28.0768L20.2914 32.6922H18.4615V28.0768H24.9068ZM13.5082 19.184C13.3797 19.0558 13.2227 18.9599 13.05 18.9039L24.1413 14.6849L21.4689 20.6391L16.7559 22.4319L13.5082 19.184ZM38.7241 14.0752L33.1468 16.1968L35.8199 10.2413L41.397 8.12006L38.7241 14.0752ZM44.4472 6.95987L50.0243 4.83881L47.3524 10.7916L41.7751 12.9131L44.4472 6.95987ZM30.0962 17.3572L24.5192 19.4788L27.1917 13.524L32.7692 11.4038L30.0962 17.3572ZM56.4255 7.34035L50.4026 9.63145L53.0752 3.67688L54.7855 3.02684L56.4255 7.34035ZM16.1538 32.6922H2.30769V21.1538H12.2143L16.1538 25.0933V32.6922ZM57.6923 32.6922H51.2471L55.8624 28.0768H57.6923V32.6922Z" fill="#EF5226"/>
<path d="M8.07666 39.6152H10.3844V41.9229H8.07666V39.6152Z" fill="#EF5226"/>
</svg>
