<svg width="60" height="60" viewBox="0 0 60 60" fill="none" xmlns="http://www.w3.org/2000/svg">
<path fill-rule="evenodd" clip-rule="evenodd" d="M20.5078 28.0078C20.5078 27.1875 21.2109 26.6016 21.9141 26.6016H33.3984C34.1016 26.6016 34.8047 27.1875 34.8047 28.0078V39.8438C34.8047 40.6641 34.1016 41.25 33.3984 41.25H21.9141C21.2109 41.25 20.5078 40.6641 20.5078 39.8438V28.0078ZM0 7.61719C0 6.91406 0.585938 6.21094 1.40625 6.21094H21.7969C22.8516 6.21094 23.0859 7.14844 23.5547 7.96875H57.0703C57.8906 7.96875 58.5938 8.55469 58.5938 9.375V14.0625C59.4141 14.0625 60 14.6484 60 15.4688V52.3828C60 53.0859 59.4141 53.7891 58.5938 53.7891H1.40625C0.585938 53.7891 0 53.0859 0 52.3828V7.61719ZM25.0781 10.7812L26.9531 14.0625H55.6641V10.7812H25.0781ZM57.1875 16.875H26.0156C25.5469 16.875 25.0781 16.5234 24.8438 16.1719L20.9766 9.02344H2.8125V50.9766H57.1875V16.875ZM7.14844 26.8359C7.14844 24.2578 9.25781 22.1484 11.9531 22.1484H35.7422C37.8516 22.1484 39.7266 23.5547 40.3125 25.5469L43.3594 23.7891C47.6953 21.3281 52.8516 24.4922 52.8516 29.2969V38.5547C52.8516 43.4766 47.5781 46.4062 43.3594 44.0625L40.3125 42.3047C39.7266 44.2969 37.8516 45.7031 35.7422 45.7031H11.9531C9.375 45.7031 7.14844 43.5938 7.14844 41.0156V26.8359ZM50.0391 29.2969C50.0391 26.6016 47.1094 24.8438 44.7656 26.25L40.4297 28.7109V39.1406L44.7656 41.6016C46.9922 42.8906 50.0391 41.3672 50.0391 38.5547V29.2969ZM37.6172 26.8359C37.6172 25.7812 36.7969 24.9609 35.7422 24.9609H11.9531C10.7812 24.9609 9.96094 25.7812 9.96094 26.8359V40.8984C9.96094 41.9531 10.8984 42.8906 11.9531 42.8906H35.7422C36.7969 42.8906 37.6172 41.9531 37.6172 40.8984V26.8359ZM31.875 29.4141H23.4375V38.4375H31.875V29.4141Z" fill="#EF5226"/>
</svg>
