<svg width="203" height="143" viewBox="0 0 203 143" fill="none" xmlns="http://www.w3.org/2000/svg">
<path fill-rule="evenodd" clip-rule="evenodd" d="M81.0079 97.6844V40.8648C101.179 50.3563 116.801 59.5252 135.278 69.4106C120.039 77.862 101.179 87.3448 81.0079 97.6844ZM193.421 12.6058C189.942 8.02155 184.012 4.45315 177.698 3.27176C159.141 -0.252241 43.3687 -0.262265 24.8214 3.27176C19.7585 4.22088 15.2501 6.51504 11.3772 10.0794C-4.94117 25.2254 0.172245 106.449 4.10562 119.605C5.75964 125.3 7.89786 129.408 10.5907 132.103C14.0601 135.668 18.8103 138.122 24.2666 139.223C39.5462 142.383 118.264 144.15 177.375 139.697C182.821 138.748 187.642 136.215 191.445 132.499C206.533 117.414 205.504 31.6291 193.421 12.6058Z" fill="#FF0000"/>
</svg>
