<svg width="60" height="60" viewBox="0 0 60 60" fill="none" xmlns="http://www.w3.org/2000/svg">
<g clip-path="url(#clip0_95_222)">
<path d="M8.75004 0H51.2501C56.0825 0 60 3.91746 60 8.75004V51.2501C60 56.0825 56.0825 60 51.25 60H8.75004C3.91746 60 0 56.0825 0 51.25V8.75004C0 3.91746 3.91746 0 8.75004 0Z" fill="#F44336"/>
<path d="M52.5 50.0001H23.75C23.0597 50.0001 22.5 49.4404 22.5 48.75C22.5 48.0597 23.0597 47.5 23.75 47.5H52.5C53.1904 47.5 53.75 48.0597 53.75 48.75C53.75 49.4404 53.1904 50.0001 52.5 50.0001Z" fill="#FAFAFA"/>
<path d="M41.9275 23.9499L24.4275 12.6999C23.8473 12.3257 23.0738 12.4927 22.6996 13.0729C22.5694 13.2747 22.5001 13.5098 22.5 13.7499V36.2499C22.5002 36.9403 23.0602 37.4997 23.7505 37.4995C23.9906 37.4994 24.2257 37.4301 24.4275 37.2999L41.9275 26.0499C42.508 25.6764 42.6759 24.903 42.3025 24.3223C42.2058 24.172 42.0778 24.0441 41.9275 23.9473V23.9499Z" fill="#FAFAFA"/>
<path d="M13.75 50.0001H6.25004C5.55969 50.0001 5 49.4404 5 48.75C5 48.0597 5.55969 47.5 6.25004 47.5H13.75C14.4404 47.5 15.0001 48.0597 15.0001 48.75C15.0001 49.4404 14.4404 50.0001 13.75 50.0001Z" fill="#FAFAFA"/>
<path d="M18.75 54.9999C22.2017 54.9999 24.9999 52.2017 24.9999 48.75C24.9999 45.2982 22.2017 42.5 18.75 42.5C15.2982 42.5 12.5 45.2982 12.5 48.75C12.5 52.2017 15.2982 54.9999 18.75 54.9999Z" fill="#05A7CC"/>
<path d="M18.7998 50.0001C18.1095 50.0001 17.5498 49.4404 17.5498 48.75C17.5497 48.0693 18.0943 47.5137 18.7748 47.5H18.7997C19.4901 47.5 20.0498 48.0597 20.0498 48.75C20.0498 49.4404 19.4902 50.0001 18.7998 50.0001Z" fill="#024656"/>
</g>
<defs>
<clipPath id="clip0_95_222">
<rect width="60" height="60" fill="white"/>
</clipPath>
</defs>
</svg>
